<?xml version="1.0" standalone="no"?>
<!DOCTYPE svg PUBLIC "-//W3C//DTD SVG 20010904//EN"
 "http://www.w3.org/TR/2001/REC-SVG-20010904/DTD/svg10.dtd">
<svg version="1.0" xmlns="http://www.w3.org/2000/svg"
 width="1241.000000pt" height="1241.000000pt" viewBox="0 0 1241.000000 1241.000000"
 preserveAspectRatio="xMidYMid meet">
<metadata>
Created by potrace 1.14, written by Peter Selinger 2001-2017
</metadata>
<g transform="translate(0.000000,1241.000000) scale(0.100000,-0.100000)"
fill="#000000" stroke="none">
<path d="M0 6205 l0 -6205 4345 0 4345 0 0 29 c0 17 4 33 10 36 12 8 14 421 1
429 -4 3 -11 40 -14 83 -3 43 -8 86 -12 96 -15 38 24 15 75 -45 66 -77 294
-303 355 -353 43 -35 65 -39 65 -10 0 12 -80 101 -200 225 -19 20 -53 58 -75
85 -22 26 -45 53 -51 59 -6 6 -30 39 -55 72 -24 34 -66 89 -94 122 -96 116
-345 466 -345 486 0 3 -19 36 -43 73 -55 85 -164 296 -202 388 -16 39 -32 75
-36 80 -8 13 -73 196 -87 250 -26 100 -52 230 -66 340 -9 66 -21 141 -27 166
-5 25 -11 131 -13 235 -2 104 -7 205 -10 224 -7 32 -3 40 44 90 28 30 62 74
76 97 28 46 39 52 100 52 59 0 181 73 246 147 28 31 35 35 67 30 20 -3 63 -1
96 4 33 6 68 12 78 13 18 2 19 -10 18 -218 -2 -181 8 -384 23 -525 41 -370 90
-580 204 -885 42 -112 60 -154 136 -319 25 -54 46 -100 46 -101 0 -2 27 -50
59 -108 83 -145 185 -301 243 -372 100 -120 263 -295 275 -295 41 0 15 41
-210 340 -42 57 -77 109 -77 117 0 9 13 13 43 13 41 -1 78 -16 207 -85 95 -51
424 -330 526 -446 11 -13 46 -60 76 -104 30 -44 78 -114 107 -155 29 -41 73
-106 98 -145 25 -38 54 -82 64 -97 11 -15 19 -30 19 -33 0 -3 12 -23 26 -45
l27 -40 963 0 964 0 0 6205 0 6205 -6205 0 -6205 0 0 -6205z m5071 5173 c34
-46 53 -88 44 -96 -13 -14 -95 91 -95 123 0 26 19 16 51 -27z m213 -130 c94
-103 198 -315 181 -368 -3 -10 -27 -31 -53 -46 -100 -59 -220 -208 -297 -369
-56 -116 -134 -250 -164 -282 -20 -21 -16 -39 5 -25 25 17 126 165 164 241 90
180 272 361 415 413 53 19 54 19 92 -1 21 -11 50 -31 64 -44 60 -57 125 -192
150 -312 6 -27 15 -68 21 -90 17 -75 32 -230 31 -335 0 -58 2 -98 5 -90 3 8 9
18 14 21 9 6 19 57 39 204 11 85 6 220 -10 270 -6 17 -22 65 -37 108 -14 43
-23 81 -20 84 7 7 51 -14 231 -115 97 -54 134 -76 210 -124 11 -7 63 -40 115
-72 52 -33 102 -67 110 -76 8 -9 38 -34 65 -55 61 -48 125 -115 125 -131 0 -6
8 -18 18 -28 45 -40 109 -212 131 -353 9 -56 21 -107 27 -114 16 -15 44 1 78
46 15 19 32 35 38 35 21 0 -10 -180 -42 -240 -8 -16 -8 -25 0 -35 20 -24 60
-23 140 5 44 15 80 24 80 18 0 -9 -79 -100 -110 -126 -38 -32 -135 -83 -154
-80 -18 3 -21 11 -24 66 -2 34 -7 62 -12 62 -9 0 -30 -62 -30 -90 0 -20 -37
-124 -57 -165 -60 -115 -222 -325 -251 -325 -8 0 -12 33 -12 110 0 127 -20
197 -78 269 -37 46 -117 91 -163 91 -48 0 -118 -31 -149 -66 -17 -19 -48 -70
-69 -112 -93 -184 -198 -342 -261 -392 -22 -18 -66 -39 -98 -47 -75 -20 -305
-23 -392 -4 -83 17 -189 67 -293 138 -115 78 -123 93 -47 93 54 0 97 16 180
69 95 61 270 205 270 223 0 20 -37 0 -210 -115 -211 -141 -244 -155 -318 -137
-28 6 -57 19 -64 27 -10 13 -7 19 19 42 17 14 47 51 66 81 51 77 160 187 247
248 75 53 138 77 268 103 34 7 62 17 62 21 0 13 -150 8 -210 -6 -112 -28 -177
-62 -295 -155 -36 -29 -69 -50 -72 -48 -13 13 150 271 194 308 11 9 43 29 71
44 28 15 49 32 46 36 -26 43 -190 -80 -271 -202 -14 -22 -30 -39 -34 -39 -5 0
-9 -6 -9 -12 0 -11 -12 -39 -52 -121 -31 -64 -47 -120 -39 -135 6 -11 3 -28
-10 -54 -10 -20 -19 -49 -19 -63 0 -14 -6 -25 -13 -25 -18 0 -127 80 -127 93
0 7 13 19 29 28 39 23 129 134 184 227 47 81 137 264 137 279 0 5 8 27 19 49
23 48 51 111 82 184 34 80 155 306 197 370 66 99 142 193 170 212 51 34 67 25
95 -50 14 -37 28 -95 32 -127 l8 -60 13 45 c11 35 12 62 4 119 -11 79 -13 85
-43 119 -27 29 -83 29 -139 1 -74 -38 -186 -172 -262 -312 -69 -128 -158 -311
-178 -367 -12 -30 -24 -59 -28 -65 -4 -5 -29 -66 -55 -134 -56 -146 -158 -326
-224 -395 -47 -49 -133 -96 -174 -96 -38 1 -90 34 -112 70 -16 27 -20 51 -19
110 1 89 23 161 70 232 44 65 31 88 -18 33 -63 -71 -98 -175 -98 -288 l0 -65
-57 -4 c-32 -2 -62 -1 -66 2 -7 7 2 33 61 160 11 25 22 56 25 70 10 53 39 146
53 174 7 16 14 37 14 46 0 9 3 20 7 24 4 4 15 42 24 84 9 42 22 100 29 127 22
89 28 119 40 180 6 33 15 79 20 102 16 72 32 324 25 398 -8 84 -37 170 -67
202 -29 31 -102 32 -160 2 -53 -27 -173 -149 -239 -242 -72 -103 -96 -112 -64
-22 8 22 15 47 15 55 0 9 11 51 25 94 62 186 255 412 391 455 35 11 45 11 71
-2 67 -35 129 -124 168 -242 16 -46 40 -359 29 -377 -2 -3 0 -17 5 -29 l8 -24
15 30 c11 22 17 80 21 220 5 173 2 227 -18 292 -7 20 -5 21 32 12 21 -5 54
-12 73 -16 43 -7 64 -24 86 -70 14 -32 18 -34 26 -18 6 9 8 33 5 53 -9 50
-111 216 -174 281 -29 30 -53 57 -53 59 0 10 71 -8 149 -37 89 -32 317 -162
339 -192 16 -23 39 -15 45 18 5 27 -19 132 -53 228 -39 111 -40 115 -25 115 7
0 43 -32 79 -72z m-3531 -231 c21 -8 43 -19 49 -25 7 -7 17 -12 24 -12 17 0
107 -71 187 -149 109 -105 250 -332 301 -483 24 -72 64 -255 72 -328 4 -36 10
-70 15 -75 4 -6 10 -71 13 -145 11 -284 -40 -588 -126 -744 -15 -28 -36 -67
-45 -86 -10 -19 -28 -46 -41 -60 -13 -14 -37 -43 -54 -65 -49 -63 -142 -128
-201 -142 -29 -6 -53 -10 -55 -8 -3 2 65 80 109 126 18 18 65 100 106 184 14
28 29 58 34 67 5 10 9 25 9 33 0 8 4 23 9 33 20 38 42 133 50 217 12 131 7
526 -7 552 -7 12 -12 40 -12 63 0 50 -40 205 -84 326 -32 89 -166 338 -214
399 -47 61 -78 97 -107 129 -42 46 -191 155 -237 173 -21 8 -38 19 -38 24 0
14 200 10 243 -4z m-251 -40 c32 -15 73 -40 90 -55 18 -15 53 -41 76 -57 67
-45 182 -191 248 -315 16 -30 31 -57 35 -60 6 -6 29 -55 64 -140 15 -36 33
-78 40 -95 17 -37 54 -181 66 -252 5 -29 14 -79 20 -110 16 -89 28 -308 23
-408 -10 -183 -21 -262 -35 -271 -5 -3 -9 -12 -9 -21 0 -8 -7 -31 -16 -51 -9
-21 -20 -46 -24 -57 -35 -89 -94 -196 -112 -203 -5 -2 -8 -8 -8 -14 0 -10 -18
-33 -76 -91 -61 -63 -103 -97 -160 -129 -58 -32 -61 -33 -179 -32 -92 0 -127
4 -150 17 -16 9 -34 17 -39 17 -6 0 -42 21 -80 47 -80 52 -211 179 -245 236
-13 21 -29 43 -35 50 -13 12 -60 95 -99 172 -11 22 -25 51 -33 65 -20 40 -77
213 -94 290 -4 19 -15 60 -23 90 -9 30 -18 89 -22 130 -3 41 -11 99 -17 129
-12 67 14 374 43 495 10 43 19 88 19 99 0 31 34 130 78 227 20 44 68 116 101
153 39 41 160 122 206 135 168 51 254 53 347 9z m2953 -323 c43 -17 66 -200
46 -369 -6 -49 -15 -126 -20 -170 -12 -105 -50 -332 -61 -370 -5 -16 -21 -77
-36 -135 -70 -272 -172 -517 -229 -551 -29 -17 -75 -25 -75 -14 0 3 11 27 24
53 48 96 67 185 73 351 5 142 -6 196 -49 240 -29 29 -71 41 -115 33 -27 -5
-84 -57 -127 -116 -24 -32 -30 -36 -38 -22 -6 10 -5 29 1 49 16 48 41 161 41
182 0 10 9 43 19 74 11 31 36 108 56 171 31 99 56 160 118 289 7 13 42 63 78
110 66 87 121 132 214 177 55 26 57 27 80 18z m-698 -1413 c6 -10 15 -36 18
-57 23 -129 73 -220 130 -236 33 -10 126 -3 153 12 9 5 51 20 92 34 41 13 97
34 123 45 76 33 117 28 172 -19 46 -40 56 -43 146 -44 29 -1 47 -10 86 -46
160 -148 535 -390 605 -390 13 0 28 -4 34 -9 31 -28 305 -44 378 -22 17 5 51
15 76 21 72 19 91 31 153 93 69 69 92 105 172 263 94 185 117 213 195 239 46
15 51 15 97 -5 53 -23 91 -69 112 -135 20 -63 1 -292 -27 -328 -5 -7 -23 -38
-41 -70 -17 -32 -60 -95 -95 -140 -62 -79 -278 -297 -341 -345 -16 -12 -54
-40 -83 -63 -85 -65 -371 -190 -507 -221 -22 -5 -56 -13 -75 -17 -181 -43
-262 -53 -440 -52 -269 2 -466 41 -668 133 -34 15 -66 28 -71 28 -5 0 -35 12
-67 26 -80 35 -82 36 -224 89 -69 26 -168 71 -220 100 -52 29 -156 84 -230
122 -74 38 -161 86 -193 106 -31 20 -62 37 -67 37 -19 0 -90 73 -90 93 0 23
42 82 69 97 14 7 31 3 67 -14 87 -40 124 -56 184 -76 64 -22 71 -25 442 -213
135 -68 260 -134 276 -146 17 -11 35 -21 42 -21 14 0 150 -67 164 -81 6 -5 18
-9 27 -9 9 0 43 -12 75 -26 137 -60 155 -65 309 -89 179 -28 307 -36 400 -26
122 14 249 38 292 56 19 8 45 15 57 15 12 0 26 4 32 9 5 4 32 14 59 21 28 7
105 39 171 70 121 57 175 98 292 220 103 107 252 342 252 397 0 12 5 25 10 28
6 3 10 26 10 50 0 55 19 75 71 75 26 0 42 5 46 15 8 23 -1 28 -63 33 -44 4
-65 0 -99 -17 -23 -12 -48 -28 -55 -36 -13 -16 -8 -20 35 -27 16 -3 19 -10 17
-33 -2 -17 -8 -34 -13 -40 -5 -5 -9 -16 -9 -25 0 -25 -62 -140 -111 -206 -49
-67 -211 -232 -281 -287 -94 -74 -197 -120 -403 -177 -44 -12 -89 -26 -100
-30 -11 -5 -36 -11 -55 -14 -19 -2 -77 -12 -128 -21 -66 -12 -123 -15 -190
-11 -130 7 -304 32 -382 54 -85 24 -147 45 -170 57 -14 7 -36 17 -50 23 -42
16 -181 81 -255 119 -152 77 -555 283 -572 292 -71 38 -274 113 -377 140 -46
12 -96 4 -96 -16 0 -8 -12 -30 -26 -48 -30 -40 -31 -40 -126 32 -67 51 -84 74
-91 121 -4 25 1 39 19 61 33 40 137 79 200 76 54 -2 263 -30 309 -40 36 -8
156 -50 182 -63 47 -24 153 -72 193 -88 25 -10 88 -43 140 -74 52 -31 115 -68
140 -81 25 -13 47 -27 48 -31 2 -5 8 -8 14 -8 16 0 235 -171 250 -196 4 -6 19
-19 33 -28 24 -16 25 -16 25 3 0 25 -130 159 -220 229 -107 82 -319 216 -412
261 -79 37 -88 44 -88 69 1 15 7 38 15 52 18 31 19 112 3 128 -19 19 -27 14
-30 -20 -2 -17 -7 -33 -13 -34 -17 -5 -94 108 -114 168 -10 32 -10 41 5 63 25
38 84 73 141 84 76 14 97 13 110 -8z m-2063 -677 c9 -3 16 -12 16 -19 0 -45
91 -185 169 -260 22 -21 41 -44 41 -50 0 -7 -32 -17 -72 -24 -40 -7 -81 -17
-90 -22 -10 -5 -29 -9 -43 -9 -14 0 -53 -9 -87 -21 -49 -16 -63 -18 -69 -7
-13 20 -11 61 5 83 62 89 110 220 103 281 -5 52 -2 59 27 48z m2 -432 c11 -7
50 -126 61 -185 5 -26 3 -28 -18 -25 -19 2 -25 11 -32 43 -19 94 -25 122 -32
148 -7 27 0 33 21 19z m595 -274 c61 -36 116 -98 145 -165 41 -93 49 -89 -148
-84 -243 5 -367 -14 -518 -77 -90 -38 -210 -108 -210 -123 0 -15 46 -10 97 10
50 19 199 69 268 89 82 24 163 32 323 32 l164 0 57 -57 c68 -69 96 -141 96
-243 -1 -89 -11 -124 -33 -115 -9 4 -53 18 -97 31 -73 21 -99 24 -284 24 -112
0 -222 -5 -245 -11 -22 -6 -54 -14 -71 -19 -16 -4 -60 -16 -97 -26 -51 -14
-68 -23 -68 -36 0 -23 29 -23 130 -3 285 58 450 59 634 5 22 -7 53 -25 69 -41
29 -30 29 -30 25 -127 -5 -105 -25 -176 -85 -295 -28 -55 -38 -68 -55 -65 -22
3 -24 7 -52 72 -11 25 -21 35 -27 29 -11 -11 10 -118 41 -207 25 -73 25 -86 0
-86 -20 0 -28 20 -49 121 -13 61 -27 109 -40 142 -18 47 -15 50 49 45 39 -3
61 0 64 7 8 23 -11 36 -73 50 -54 13 -72 13 -147 0 -111 -19 -274 -94 -274
-125 0 -4 8 -10 18 -12 13 -4 23 -30 41 -104 27 -114 63 -227 88 -281 35 -75
113 -87 257 -42 74 24 122 60 141 106 20 47 19 68 -5 132 -30 77 -23 94 20 52
47 -44 110 -89 190 -131 65 -35 65 -35 62 -75 -5 -63 -41 -205 -82 -320 -48
-137 -155 -355 -175 -355 -9 0 -32 11 -53 24 -20 13 -62 34 -92 47 -30 12 -67
31 -82 41 -14 10 -29 18 -32 18 -11 0 -179 83 -231 114 -261 156 -548 505
-680 826 -15 36 -36 85 -47 110 -70 153 -131 439 -129 601 1 131 36 236 94
285 92 77 396 178 652 215 162 23 205 27 305 26 94 -2 110 -5 151 -29z m3389
-31 c0 -7 -11 -28 -24 -48 -23 -34 -134 -258 -174 -350 -15 -35 -38 -61 -93
-105 -41 -32 -102 -86 -137 -121 l-62 -63 -58 6 c-75 8 -158 -10 -216 -46 -69
-44 -73 -42 -79 48 -17 209 -27 325 -37 406 -6 50 -8 96 -5 104 4 11 17 13 58
8 101 -13 357 20 512 65 85 25 256 89 270 100 14 13 45 11 45 -4z m-2828 -254
c45 -51 68 -194 48 -300 -15 -82 -47 -131 -127 -200 -113 -97 -134 -102 -153
-33 -10 37 -8 47 17 98 23 48 28 69 27 132 -1 41 -7 87 -13 103 -10 25 -7 31
32 70 23 23 51 56 61 72 46 74 79 91 108 58z m1220 -228 c3 -22 12 -58 18 -80
7 -22 12 -56 11 -75 -4 -89 45 -190 150 -311 27 -31 49 -61 49 -65 0 -5 -20
-21 -44 -35 -65 -39 -166 -188 -166 -244 0 -7 -7 -18 -15 -25 -13 -11 -25 -6
-73 25 -203 135 -350 305 -367 426 -9 58 2 80 69 142 105 98 244 217 253 217
5 0 24 16 43 35 43 45 63 42 72 -10z m2650 -72 c29 -24 105 -90 232 -203 138
-122 297 -313 282 -338 -7 -11 -23 -8 -166 32 -119 32 -238 52 -360 61 -260
17 -725 -114 -835 -235 -26 -28 -35 -25 -35 13 0 17 -7 57 -15 87 -8 30 -15
60 -15 65 0 6 22 27 48 47 75 58 128 116 147 161 9 23 21 50 26 59 5 10 9 30
9 45 0 23 11 35 62 68 34 22 71 45 83 51 43 22 222 82 265 89 25 4 65 10 90
15 97 16 146 12 182 -17z m-1252 -12 c0 -5 -15 -20 -32 -32 -18 -13 -66 -51
-107 -86 -54 -46 -77 -60 -83 -51 -9 14 70 94 133 134 21 13 40 28 44 34 8 13
45 13 45 1z m-230 -326 c0 -8 -7 -15 -16 -15 -14 0 -14 3 -4 15 7 8 14 15 16
15 2 0 4 -7 4 -15z m-3214 -470 c50 -192 49 -185 30 -185 -16 0 -42 77 -82
236 -17 68 -14 118 6 98 5 -5 26 -72 46 -149z m1210 -310 c130 -59 144 -67
158 -99 7 -17 19 -44 26 -61 32 -77 31 -397 -1 -519 -22 -85 -81 -272 -96
-306 -36 -81 -170 -236 -251 -291 -49 -33 -69 -35 -144 -15 -209 57 -290 85
-301 103 -3 5 28 38 69 73 42 36 79 70 82 76 4 7 32 39 62 71 57 61 107 123
126 158 6 11 27 46 46 77 51 84 92 212 123 387 27 150 29 228 10 334 -5 24 0
47 9 47 2 0 39 -16 82 -35z m4822 -435 c26 -6 70 -16 97 -22 28 -6 55 -14 60
-18 6 -3 33 -15 60 -25 125 -45 185 -85 310 -204 148 -141 257 -327 342 -581
46 -138 69 -151 59 -31 -7 79 -16 122 -43 204 -28 88 -1 72 115 -67 36 -43 68
-74 70 -67 5 16 -44 108 -85 159 -39 48 -38 56 10 115 12 15 33 41 46 59 64
85 147 129 311 162 172 34 205 30 158 -22 -77 -84 -112 -181 -112 -313 0 -102
5 -120 64 -244 66 -137 82 -197 82 -294 0 -100 -25 -167 -87 -233 -36 -40 -64
-47 -110 -26 -20 9 -28 9 -38 -1 -35 -35 114 -63 201 -37 51 15 153 67 183 93
47 40 20 -94 -33 -169 -67 -95 -153 -141 -271 -147 -43 -2 -77 -6 -75 -10 2
-6 66 -136 119 -243 5 -10 9 -28 9 -40 0 -19 -10 -12 -67 43 -129 124 -186
167 -210 158 -19 -7 -21 -13 -16 -69 6 -63 2 -81 -45 -220 -23 -69 -53 -120
-148 -255 -41 -58 -191 -229 -263 -299 -77 -76 -81 -70 -83 141 -1 98 0 212 1
253 l3 75 59 54 c33 29 77 79 98 110 76 113 59 115 -54 4 -129 -127 -193 -164
-322 -187 -44 -7 -48 6 -20 57 37 66 74 185 80 255 5 55 3 61 -9 45 -7 -10
-14 -27 -14 -39 0 -11 -18 -54 -40 -95 -22 -41 -50 -94 -62 -118 -43 -88 -210
-241 -308 -283 -39 -17 -40 -17 -40 2 0 10 5 22 10 25 20 12 88 171 104 242
18 81 21 159 6 168 -5 3 -10 -4 -10 -15 0 -12 -6 -34 -14 -48 -8 -15 -29 -65
-47 -112 -37 -97 -72 -155 -172 -289 -132 -178 -256 -276 -407 -326 -119 -39
-130 -43 -130 -55 0 -33 210 7 315 60 43 22 83 36 87 32 12 -12 27 -405 17
-418 -5 -6 -32 -15 -60 -18 -28 -4 -67 -13 -87 -20 -42 -16 -98 -27 -322 -66
-36 -6 -158 -14 -272 -17 -202 -6 -211 -5 -325 22 -171 40 -323 94 -485 174
-170 84 -182 90 -278 162 -99 74 -222 201 -309 319 -117 158 -137 219 -68 206
115 -21 292 -28 394 -17 140 15 262 37 343 59 19 6 73 20 120 32 101 25 148
38 175 50 11 5 54 20 95 35 111 39 201 88 330 178 181 128 422 379 552 577
145 221 309 591 346 780 38 192 35 404 -7 607 -4 23 -6 45 -3 48 9 8 70 6 120
-5z m-1660 -890 c131 -105 240 -242 273 -344 20 -63 21 -74 9 -120 -13 -54
-71 -136 -96 -136 -10 0 -14 14 -14 58 0 90 -46 229 -86 262 -7 7 -14 18 -14
24 0 21 -125 134 -177 160 -29 15 -53 28 -53 30 0 2 8 23 19 47 10 24 21 52
24 62 11 29 36 19 115 -43z m-68 -186 c104 -91 164 -185 194 -305 23 -94 21
-135 -9 -164 -47 -48 -148 -29 -243 43 -92 70 -172 179 -172 236 0 11 15 47
34 80 18 34 41 84 51 111 21 58 41 78 64 65 9 -5 45 -34 81 -66z m-1500 -164
c19 -5 76 -16 125 -26 88 -16 233 -59 298 -87 17 -8 50 -22 72 -32 109 -47
136 -66 235 -165 130 -129 180 -191 180 -222 -1 -31 -222 -423 -240 -423 -7 0
-17 12 -21 27 -22 83 -221 272 -361 344 -51 26 -222 84 -303 103 -27 7 -66 16
-85 21 -82 22 -235 40 -327 40 -85 0 -210 -17 -335 -46 -23 -5 -28 -3 -28 13
0 11 10 33 23 49 33 43 69 94 169 247 49 75 91 137 92 138 0 0 37 5 81 10 44
6 103 14 130 19 56 9 242 3 295 -10z m7474 -196 c14 -14 16 -205 16 -1959 0
-1069 -3 -1950 -6 -1959 -3 -9 -10 -13 -15 -10 -5 3 -9 1 -9 -5 0 -13 -42 -5
-52 11 -4 7 -8 889 -8 1960 0 1756 2 1948 16 1962 8 9 22 16 29 16 7 0 21 -7
29 -16z m-8292 -803 c24 -6 93 -17 153 -26 197 -29 322 -59 485 -117 116 -41
119 -47 66 -116 -24 -32 -70 -93 -102 -138 -32 -45 -92 -125 -132 -178 -40
-54 -94 -130 -119 -169 -49 -76 -113 -208 -113 -233 0 -8 -5 -22 -10 -32 -6
-9 -24 -71 -41 -137 -45 -178 -55 -220 -73 -330 -10 -55 -26 -147 -36 -205
-55 -317 -75 -512 -86 -868 -4 -117 -10 -215 -14 -217 -6 -3 -34 98 -80 285
-46 189 -73 367 -86 573 -5 87 -13 113 -28 89 -23 -37 -12 -451 15 -572 6 -25
14 -63 19 -85 5 -22 20 -87 33 -145 40 -170 47 -221 47 -323 0 -114 -16 -167
-51 -167 -13 0 -43 10 -67 21 l-44 22 8 46 c14 77 8 201 -14 281 -11 41 -37
131 -57 200 -20 69 -46 168 -57 220 -11 52 -35 155 -54 228 -19 73 -34 142
-34 153 0 11 -4 18 -9 15 -17 -11 -2 -162 30 -301 5 -22 13 -77 19 -123 11
-96 53 -293 80 -372 28 -86 39 -140 41 -212 3 -82 -8 -98 -65 -98 -118 0 -279
171 -336 355 -39 129 -49 176 -79 360 -55 336 -88 497 -116 566 -32 80 -92
172 -147 226 -51 50 -192 119 -275 134 -73 14 -184 5 -288 -22 -101 -27 -236
-35 -290 -18 -86 29 -162 73 -218 127 -31 31 -57 61 -57 66 0 6 -11 22 -25 36
-39 41 -37 95 3 132 28 24 40 28 95 28 34 0 102 -7 150 -15 128 -21 269 -7
434 44 60 18 193 90 251 135 60 47 143 119 288 248 125 113 187 140 370 163
55 7 110 18 122 24 12 6 52 51 89 100 103 135 272 339 286 345 20 8 75 6 119
-3z m-249 -25 c3 -12 -30 -32 -39 -24 -11 12 5 40 21 36 9 -2 17 -7 18 -12z
m1747 -240 c15 -48 62 -122 129 -206 28 -35 51 -67 51 -71 0 -11 -29 -19 -72
-19 -91 0 -267 -39 -363 -81 -16 -7 -57 -31 -89 -52 -45 -29 -61 -35 -67 -25
-11 17 -11 26 1 49 6 10 18 19 27 19 31 0 149 136 231 266 44 71 85 141 91
156 5 14 16 28 23 31 13 4 17 -2 38 -67z m-954 -374 c12 -11 75 -29 134 -38
61 -10 265 -11 322 -1 l46 8 1 -63 c0 -64 6 -83 61 -204 17 -35 30 -69 30 -74
0 -5 16 -42 35 -82 107 -221 194 -353 325 -494 41 -44 111 -120 155 -168 44
-49 94 -103 110 -121 17 -18 55 -61 85 -96 30 -35 71 -80 90 -99 19 -20 45
-49 57 -65 152 -203 181 -258 189 -357 10 -114 -4 -151 -87 -230 -39 -37 -80
-70 -92 -73 -72 -19 -100 -25 -173 -35 -121 -16 -567 -13 -694 4 -144 21 -284
43 -350 57 -30 6 -75 15 -100 19 -25 5 -63 13 -85 19 -22 6 -89 22 -150 35
-132 29 -229 53 -271 66 -17 6 -44 10 -60 10 -55 0 -56 4 -51 166 8 199 33
459 55 554 14 61 29 140 43 225 6 39 15 89 20 112 5 23 9 53 9 68 0 14 16 91
35 171 19 80 35 159 35 176 0 44 21 108 36 108 7 0 26 -35 44 -77 38 -95 70
-157 122 -243 54 -90 61 -101 75 -119 36 -45 107 -142 138 -188 90 -130 401
-452 438 -453 20 0 -1 31 -80 123 -140 159 -190 224 -271 347 -41 63 -77 117
-81 120 -15 12 -201 313 -201 325 0 2 -25 59 -55 127 -67 147 -72 158 -78 179
-8 25 37 108 116 217 38 51 53 60 73 44z m-1762 -844 c68 -19 137 -77 198
-166 45 -65 96 -189 103 -252 4 -30 13 -95 22 -143 8 -48 13 -91 10 -94 -9 -9
-129 73 -305 209 -166 128 -217 255 -152 375 20 35 64 83 77 83 3 0 24 -5 47
-12z"/>
<path d="M1254 10892 c-28 -11 -64 -27 -80 -35 -16 -9 -38 -20 -49 -25 -27
-13 -138 -131 -172 -184 -60 -93 -73 -134 -80 -243 -3 -38 -9 -75 -15 -82 -12
-15 -11 -512 1 -527 5 -6 11 -49 14 -96 5 -101 29 -221 57 -295 4 -11 13 -40
20 -65 7 -25 16 -54 20 -65 5 -11 16 -41 27 -67 10 -27 21 -48 26 -48 4 0 7
-11 7 -24 0 -13 7 -29 15 -36 9 -7 25 -35 37 -62 11 -26 24 -48 29 -48 5 0 9
-9 9 -19 0 -11 5 -23 10 -26 6 -4 26 -30 44 -60 38 -59 131 -135 165 -135 12
0 20 -4 16 -9 -7 -12 50 -41 79 -41 20 0 20 1 -4 20 -14 11 -31 20 -38 20 -18
0 -48 20 -91 60 -162 153 -322 507 -371 825 -33 217 -42 327 -37 455 13 299
30 413 77 505 11 21 20 44 20 50 1 13 123 133 170 167 86 61 230 88 307 57
117 -47 208 -126 286 -246 26 -40 47 -75 47 -78 0 -3 10 -22 23 -43 26 -43 77
-161 77 -180 0 -7 4 -20 9 -30 20 -35 56 -168 82 -302 45 -221 44 -567 -1
-725 -29 -104 -123 -312 -169 -375 -72 -99 -173 -160 -265 -160 -69 0 -90 -7
-73 -25 24 -23 76 -29 97 -10 12 11 28 15 43 11 44 -11 155 61 223 143 44 54
124 205 124 235 0 8 4 18 10 21 5 3 10 16 10 29 0 12 3 25 6 29 18 18 57 153
67 232 20 157 9 529 -17 612 -4 12 -9 30 -11 40 -8 42 -47 189 -55 208 -4 11
-25 65 -45 120 -38 99 -101 235 -114 245 -4 3 -21 25 -38 50 -72 105 -176 192
-273 228 -19 7 -73 15 -120 18 -67 4 -96 1 -136 -14z"/>
<path d="M1298 10756 c-28 -29 -72 -113 -84 -161 -4 -16 -15 -47 -26 -67 -10
-21 -16 -38 -14 -38 3 0 0 -15 -5 -32 -31 -100 -39 -142 -30 -151 10 -10 31
50 31 90 0 12 5 25 10 28 6 3 10 17 10 30 0 13 4 26 9 29 4 3 11 19 14 36 4
16 16 49 27 72 11 23 20 46 20 51 0 5 16 31 36 58 43 58 45 97 2 55z"/>
<path d="M1133 10230 c0 -25 2 -35 4 -22 2 12 2 32 0 45 -2 12 -4 2 -4 -23z"/>
<path d="M1113 9715 c0 -22 2 -30 4 -17 2 12 2 30 0 40 -3 9 -5 -1 -4 -23z"/>
<path d="M1133 9600 c0 -25 2 -35 4 -22 2 12 2 32 0 45 -2 12 -4 2 -4 -23z"/>
<path d="M1291 9534 c0 -11 3 -14 6 -6 3 7 2 16 -1 19 -3 4 -6 -2 -5 -13z"/>
<path d="M1146 9480 c7 -52 30 -131 50 -175 l14 -30 0 37 c0 20 -4 40 -10 43
-5 3 -10 19 -10 35 0 16 -4 32 -10 35 -5 3 -10 19 -10 34 0 15 -7 36 -15 47
-15 18 -15 16 -9 -26z"/>
<path d="M1303 9481 c17 -83 103 -223 192 -311 64 -63 72 -52 15 23 -39 51
-51 67 -88 117 -11 14 -38 64 -62 113 -43 87 -68 112 -57 58z"/>
<path d="M1222 9260 c0 -14 2 -19 5 -12 2 6 2 18 0 25 -3 6 -5 1 -5 -13z"/>
<path d="M1240 9211 c0 -5 5 -13 10 -16 6 -3 10 -2 10 4 0 5 -4 13 -10 16 -5
3 -10 2 -10 -4z"/>
<path d="M1272 9150 c0 -14 2 -19 5 -12 2 6 2 18 0 25 -3 6 -5 1 -5 -13z"/>
<path d="M1376 8955 c4 -8 8 -15 10 -15 2 0 4 7 4 15 0 8 -4 15 -10 15 -5 0
-7 -7 -4 -15z"/>
</g>
</svg>
